<mxfile host="app.diagrams.net" agent="Mozilla/5.0 (Windows NT 10.0; Win64; x64) AppleWebKit/537.36 (KHTML, like Gecko) Chrome/141.0.0.0 Safari/537.36" version="28.2.7">
  <diagram name="Page-1" id="nQAfRUXGqWQOAWWIKLOQ">
    <mxGraphModel dx="6143" dy="2269" grid="1" gridSize="10" guides="1" tooltips="1" connect="1" arrows="1" fold="1" page="1" pageScale="1" pageWidth="850" pageHeight="1100" math="0" shadow="0">
      <root>
        <mxCell id="0" />
        <mxCell id="1" parent="0" />
        <mxCell id="j15NHr6mmCdAOCwjugsd-7" value="" style="edgeStyle=orthogonalEdgeStyle;rounded=0;orthogonalLoop=1;jettySize=auto;html=1;" parent="1" source="j15NHr6mmCdAOCwjugsd-1" edge="1">
          <mxGeometry relative="1" as="geometry">
            <mxPoint x="420" y="160" as="targetPoint" />
          </mxGeometry>
        </mxCell>
        <mxCell id="j15NHr6mmCdAOCwjugsd-1" value="START" style="ellipse;whiteSpace=wrap;html=1;" parent="1" vertex="1">
          <mxGeometry x="360" y="30" width="120" height="80" as="geometry" />
        </mxCell>
        <mxCell id="j15NHr6mmCdAOCwjugsd-13" value="" style="edgeStyle=orthogonalEdgeStyle;rounded=0;orthogonalLoop=1;jettySize=auto;html=1;" parent="1" source="j15NHr6mmCdAOCwjugsd-11" target="j15NHr6mmCdAOCwjugsd-12" edge="1">
          <mxGeometry relative="1" as="geometry" />
        </mxCell>
        <mxCell id="j15NHr6mmCdAOCwjugsd-11" value="1. Login&lt;div&gt;2. Register&lt;/div&gt;&lt;div&gt;3.Keluar&lt;/div&gt;" style="shape=parallelogram;perimeter=parallelogramPerimeter;whiteSpace=wrap;html=1;fixedSize=1;" parent="1" vertex="1">
          <mxGeometry x="360" y="160" width="120" height="60" as="geometry" />
        </mxCell>
        <mxCell id="j15NHr6mmCdAOCwjugsd-15" value="" style="edgeStyle=orthogonalEdgeStyle;rounded=0;orthogonalLoop=1;jettySize=auto;html=1;" parent="1" source="j15NHr6mmCdAOCwjugsd-12" target="j15NHr6mmCdAOCwjugsd-14" edge="1">
          <mxGeometry relative="1" as="geometry" />
        </mxCell>
        <mxCell id="j15NHr6mmCdAOCwjugsd-19" value="" style="edgeStyle=orthogonalEdgeStyle;rounded=0;orthogonalLoop=1;jettySize=auto;html=1;" parent="1" source="j15NHr6mmCdAOCwjugsd-12" target="j15NHr6mmCdAOCwjugsd-18" edge="1">
          <mxGeometry relative="1" as="geometry" />
        </mxCell>
        <mxCell id="j15NHr6mmCdAOCwjugsd-12" value="pilihan == 1?" style="rhombus;whiteSpace=wrap;html=1;" parent="1" vertex="1">
          <mxGeometry x="380" y="290" width="80" height="80" as="geometry" />
        </mxCell>
        <mxCell id="j15NHr6mmCdAOCwjugsd-17" value="" style="edgeStyle=orthogonalEdgeStyle;rounded=0;orthogonalLoop=1;jettySize=auto;html=1;" parent="1" source="j15NHr6mmCdAOCwjugsd-14" target="j15NHr6mmCdAOCwjugsd-16" edge="1">
          <mxGeometry relative="1" as="geometry" />
        </mxCell>
        <mxCell id="j15NHr6mmCdAOCwjugsd-30" value="" style="edgeStyle=orthogonalEdgeStyle;rounded=0;orthogonalLoop=1;jettySize=auto;html=1;" parent="1" source="j15NHr6mmCdAOCwjugsd-14" target="j15NHr6mmCdAOCwjugsd-29" edge="1">
          <mxGeometry relative="1" as="geometry" />
        </mxCell>
        <mxCell id="j15NHr6mmCdAOCwjugsd-14" value="pilihan == 2?" style="rhombus;whiteSpace=wrap;html=1;" parent="1" vertex="1">
          <mxGeometry x="530" y="290" width="80" height="80" as="geometry" />
        </mxCell>
        <mxCell id="j15NHr6mmCdAOCwjugsd-98" value="" style="edgeStyle=orthogonalEdgeStyle;rounded=0;orthogonalLoop=1;jettySize=auto;html=1;entryX=1;entryY=0.5;entryDx=0;entryDy=0;" parent="1" source="j15NHr6mmCdAOCwjugsd-99" target="TcDW0OOKa5HVjLUOx_Y9-136" edge="1">
          <mxGeometry relative="1" as="geometry">
            <mxPoint x="730" y="540" as="targetPoint" />
            <Array as="points">
              <mxPoint x="730" y="1050" />
            </Array>
          </mxGeometry>
        </mxCell>
        <mxCell id="j15NHr6mmCdAOCwjugsd-180" value="" style="edgeStyle=orthogonalEdgeStyle;rounded=0;orthogonalLoop=1;jettySize=auto;html=1;entryX=0.094;entryY=0.5;entryDx=0;entryDy=0;entryPerimeter=0;" parent="1" source="j15NHr6mmCdAOCwjugsd-16" target="j15NHr6mmCdAOCwjugsd-184" edge="1">
          <mxGeometry relative="1" as="geometry">
            <mxPoint x="790.000047259035" y="330.0434782608696" as="targetPoint" />
          </mxGeometry>
        </mxCell>
        <mxCell id="j15NHr6mmCdAOCwjugsd-16" value="pilihan == 3?" style="rhombus;whiteSpace=wrap;html=1;" parent="1" vertex="1">
          <mxGeometry x="690" y="290" width="80" height="80" as="geometry" />
        </mxCell>
        <mxCell id="j15NHr6mmCdAOCwjugsd-26" value="" style="edgeStyle=orthogonalEdgeStyle;rounded=0;orthogonalLoop=1;jettySize=auto;html=1;" parent="1" source="j15NHr6mmCdAOCwjugsd-18" target="j15NHr6mmCdAOCwjugsd-25" edge="1">
          <mxGeometry relative="1" as="geometry" />
        </mxCell>
        <mxCell id="j15NHr6mmCdAOCwjugsd-18" value="username&lt;div&gt;dan password&lt;/div&gt;" style="shape=parallelogram;perimeter=parallelogramPerimeter;whiteSpace=wrap;html=1;fixedSize=1;" parent="1" vertex="1">
          <mxGeometry x="340" y="540" width="160" height="60" as="geometry" />
        </mxCell>
        <mxCell id="j15NHr6mmCdAOCwjugsd-22" value="" style="edgeStyle=orthogonalEdgeStyle;rounded=0;orthogonalLoop=1;jettySize=auto;html=1;" parent="1" edge="1">
          <mxGeometry relative="1" as="geometry">
            <mxPoint x="340" y="167" as="sourcePoint" />
            <mxPoint x="399" y="167" as="targetPoint" />
          </mxGeometry>
        </mxCell>
        <mxCell id="j15NHr6mmCdAOCwjugsd-23" value="" style="edgeStyle=orthogonalEdgeStyle;rounded=0;orthogonalLoop=1;jettySize=auto;html=1;" parent="1" edge="1">
          <mxGeometry relative="1" as="geometry">
            <mxPoint x="320" y="549" as="sourcePoint" />
            <mxPoint x="379" y="549" as="targetPoint" />
          </mxGeometry>
        </mxCell>
        <mxCell id="j15NHr6mmCdAOCwjugsd-24" value="masukkan username&lt;div&gt;dan password&lt;/div&gt;" style="rounded=0;whiteSpace=wrap;html=1;" parent="1" vertex="1">
          <mxGeometry x="360" y="430" width="120" height="60" as="geometry" />
        </mxCell>
        <mxCell id="j15NHr6mmCdAOCwjugsd-28" value="" style="edgeStyle=orthogonalEdgeStyle;rounded=0;orthogonalLoop=1;jettySize=auto;html=1;" parent="1" source="j15NHr6mmCdAOCwjugsd-25" edge="1">
          <mxGeometry relative="1" as="geometry">
            <mxPoint x="420" y="780" as="targetPoint" />
          </mxGeometry>
        </mxCell>
        <mxCell id="hqG3hTB7xKrccAEoL0Ke-12" value="" style="edgeStyle=orthogonalEdgeStyle;rounded=0;orthogonalLoop=1;jettySize=auto;html=1;" parent="1" source="j15NHr6mmCdAOCwjugsd-25" target="hqG3hTB7xKrccAEoL0Ke-11" edge="1">
          <mxGeometry relative="1" as="geometry" />
        </mxCell>
        <mxCell id="j15NHr6mmCdAOCwjugsd-25" value="benar?" style="rhombus;whiteSpace=wrap;html=1;" parent="1" vertex="1">
          <mxGeometry x="380" y="650" width="80" height="80" as="geometry" />
        </mxCell>
        <mxCell id="j15NHr6mmCdAOCwjugsd-104" value="" style="edgeStyle=orthogonalEdgeStyle;rounded=0;orthogonalLoop=1;jettySize=auto;html=1;" parent="1" source="j15NHr6mmCdAOCwjugsd-29" edge="1">
          <mxGeometry relative="1" as="geometry">
            <mxPoint x="570" y="540" as="targetPoint" />
          </mxGeometry>
        </mxCell>
        <mxCell id="j15NHr6mmCdAOCwjugsd-29" value="tampilkan&lt;div&gt;from register&lt;/div&gt;" style="whiteSpace=wrap;html=1;" parent="1" vertex="1">
          <mxGeometry x="510" y="430" width="120" height="60" as="geometry" />
        </mxCell>
        <mxCell id="j15NHr6mmCdAOCwjugsd-42" value="" style="edgeStyle=orthogonalEdgeStyle;rounded=0;orthogonalLoop=1;jettySize=auto;html=1;" parent="1" source="j15NHr6mmCdAOCwjugsd-33" target="j15NHr6mmCdAOCwjugsd-41" edge="1">
          <mxGeometry relative="1" as="geometry" />
        </mxCell>
        <mxCell id="j15NHr6mmCdAOCwjugsd-33" value="&lt;div&gt;1. Tambah Data Pelanggan (Create)&lt;/div&gt;&lt;div&gt;2. Lihat Data Pelanggan (Read)&lt;/div&gt;&lt;div&gt;3. Ubah Data Pelanggan (Update)&lt;/div&gt;&lt;div&gt;4. Hapus Data Pelanggan (Delete)&lt;/div&gt;&lt;div&gt;5. Lihat Daftar Paket Photobox&lt;/div&gt;&lt;div&gt;6. Logout&lt;/div&gt;" style="shape=parallelogram;perimeter=parallelogramPerimeter;whiteSpace=wrap;html=1;fixedSize=1;" parent="1" vertex="1">
          <mxGeometry x="295" y="1250" width="250" height="120" as="geometry" />
        </mxCell>
        <mxCell id="j15NHr6mmCdAOCwjugsd-39" value="" style="edgeStyle=orthogonalEdgeStyle;rounded=0;orthogonalLoop=1;jettySize=auto;html=1;" parent="1" target="j15NHr6mmCdAOCwjugsd-33" edge="1">
          <mxGeometry relative="1" as="geometry">
            <mxPoint x="420" y="1190" as="sourcePoint" />
          </mxGeometry>
        </mxCell>
        <mxCell id="j15NHr6mmCdAOCwjugsd-40" value="" style="edgeStyle=orthogonalEdgeStyle;rounded=0;orthogonalLoop=1;jettySize=auto;html=1;" parent="1" edge="1">
          <mxGeometry relative="1" as="geometry">
            <mxPoint x="473" y="1355" as="sourcePoint" />
            <mxPoint x="602" y="1355" as="targetPoint" />
          </mxGeometry>
        </mxCell>
        <mxCell id="j15NHr6mmCdAOCwjugsd-45" value="" style="edgeStyle=orthogonalEdgeStyle;rounded=0;orthogonalLoop=1;jettySize=auto;html=1;" parent="1" source="j15NHr6mmCdAOCwjugsd-41" target="j15NHr6mmCdAOCwjugsd-44" edge="1">
          <mxGeometry relative="1" as="geometry" />
        </mxCell>
        <mxCell id="j15NHr6mmCdAOCwjugsd-41" value="pilihan admin" style="shape=parallelogram;perimeter=parallelogramPerimeter;whiteSpace=wrap;html=1;fixedSize=1;" parent="1" vertex="1">
          <mxGeometry x="360" y="1440" width="120" height="60" as="geometry" />
        </mxCell>
        <mxCell id="j15NHr6mmCdAOCwjugsd-43" value="" style="edgeStyle=orthogonalEdgeStyle;rounded=0;orthogonalLoop=1;jettySize=auto;html=1;" parent="1" edge="1">
          <mxGeometry relative="1" as="geometry">
            <mxPoint x="337" y="1449" as="sourcePoint" />
            <mxPoint x="402" y="1449" as="targetPoint" />
          </mxGeometry>
        </mxCell>
        <mxCell id="j15NHr6mmCdAOCwjugsd-47" value="" style="edgeStyle=orthogonalEdgeStyle;rounded=0;orthogonalLoop=1;jettySize=auto;html=1;" parent="1" source="j15NHr6mmCdAOCwjugsd-44" edge="1">
          <mxGeometry relative="1" as="geometry">
            <mxPoint x="420" y="1670" as="targetPoint" />
          </mxGeometry>
        </mxCell>
        <mxCell id="j15NHr6mmCdAOCwjugsd-53" value="" style="edgeStyle=orthogonalEdgeStyle;rounded=0;orthogonalLoop=1;jettySize=auto;html=1;" parent="1" source="j15NHr6mmCdAOCwjugsd-44" target="j15NHr6mmCdAOCwjugsd-52" edge="1">
          <mxGeometry relative="1" as="geometry" />
        </mxCell>
        <mxCell id="j15NHr6mmCdAOCwjugsd-44" value="pilihan admin&lt;div&gt;= 1&lt;/div&gt;" style="rhombus;whiteSpace=wrap;html=1;" parent="1" vertex="1">
          <mxGeometry x="380" y="1550" width="80" height="80" as="geometry" />
        </mxCell>
        <mxCell id="j15NHr6mmCdAOCwjugsd-55" value="" style="edgeStyle=orthogonalEdgeStyle;rounded=0;orthogonalLoop=1;jettySize=auto;html=1;" parent="1" source="j15NHr6mmCdAOCwjugsd-52" edge="1">
          <mxGeometry relative="1" as="geometry">
            <mxPoint x="260.0000000000002" y="1678" as="targetPoint" />
          </mxGeometry>
        </mxCell>
        <mxCell id="j15NHr6mmCdAOCwjugsd-58" value="" style="edgeStyle=orthogonalEdgeStyle;rounded=0;orthogonalLoop=1;jettySize=auto;html=1;" parent="1" source="j15NHr6mmCdAOCwjugsd-52" target="j15NHr6mmCdAOCwjugsd-57" edge="1">
          <mxGeometry relative="1" as="geometry" />
        </mxCell>
        <mxCell id="j15NHr6mmCdAOCwjugsd-52" value="pilihan admin&lt;div&gt;= 2&lt;/div&gt;" style="rhombus;whiteSpace=wrap;html=1;" parent="1" vertex="1">
          <mxGeometry x="220" y="1550" width="80" height="80" as="geometry" />
        </mxCell>
        <mxCell id="hqG3hTB7xKrccAEoL0Ke-18" style="edgeStyle=orthogonalEdgeStyle;rounded=0;orthogonalLoop=1;jettySize=auto;html=1;exitX=0.5;exitY=1;exitDx=0;exitDy=0;entryX=1;entryY=0.5;entryDx=0;entryDy=0;" parent="1" target="j15NHr6mmCdAOCwjugsd-33" edge="1">
          <mxGeometry relative="1" as="geometry">
            <mxPoint x="550" y="1310" as="targetPoint" />
            <Array as="points">
              <mxPoint x="260" y="1970" />
              <mxPoint x="740" y="1970" />
              <mxPoint x="740" y="1310" />
            </Array>
            <mxPoint x="260.0000000000002" y="1725.0000000000005" as="sourcePoint" />
          </mxGeometry>
        </mxCell>
        <mxCell id="j15NHr6mmCdAOCwjugsd-67" value="" style="edgeStyle=orthogonalEdgeStyle;rounded=0;orthogonalLoop=1;jettySize=auto;html=1;entryX=1;entryY=0.5;entryDx=0;entryDy=0;" parent="1" source="j15NHr6mmCdAOCwjugsd-57" target="j15NHr6mmCdAOCwjugsd-73" edge="1">
          <mxGeometry relative="1" as="geometry">
            <mxPoint x="35" y="1589" as="targetPoint" />
          </mxGeometry>
        </mxCell>
        <mxCell id="TcDW0OOKa5HVjLUOx_Y9-21" style="edgeStyle=orthogonalEdgeStyle;rounded=0;orthogonalLoop=1;jettySize=auto;html=1;exitX=0.5;exitY=1;exitDx=0;exitDy=0;entryX=0.5;entryY=0;entryDx=0;entryDy=0;" edge="1" parent="1" source="j15NHr6mmCdAOCwjugsd-57" target="TcDW0OOKa5HVjLUOx_Y9-17">
          <mxGeometry relative="1" as="geometry" />
        </mxCell>
        <mxCell id="j15NHr6mmCdAOCwjugsd-57" value="pilihan admin&lt;div&gt;= 3&lt;/div&gt;" style="rhombus;whiteSpace=wrap;html=1;" parent="1" vertex="1">
          <mxGeometry x="80" y="1550" width="80" height="80" as="geometry" />
        </mxCell>
        <mxCell id="j15NHr6mmCdAOCwjugsd-81" value="" style="edgeStyle=orthogonalEdgeStyle;rounded=0;orthogonalLoop=1;jettySize=auto;html=1;" parent="1" source="j15NHr6mmCdAOCwjugsd-73" target="j15NHr6mmCdAOCwjugsd-80" edge="1">
          <mxGeometry relative="1" as="geometry" />
        </mxCell>
        <mxCell id="j15NHr6mmCdAOCwjugsd-73" value="pilihan admin&lt;div&gt;= 4&lt;/div&gt;" style="rhombus;whiteSpace=wrap;html=1;" parent="1" vertex="1">
          <mxGeometry x="-60" y="1550" width="80" height="80" as="geometry" />
        </mxCell>
        <mxCell id="j15NHr6mmCdAOCwjugsd-85" value="" style="edgeStyle=orthogonalEdgeStyle;rounded=0;orthogonalLoop=1;jettySize=auto;html=1;" parent="1" source="j15NHr6mmCdAOCwjugsd-80" target="j15NHr6mmCdAOCwjugsd-84" edge="1">
          <mxGeometry relative="1" as="geometry" />
        </mxCell>
        <mxCell id="j15NHr6mmCdAOCwjugsd-88" value="" style="edgeStyle=orthogonalEdgeStyle;rounded=0;orthogonalLoop=1;jettySize=auto;html=1;" parent="1" source="j15NHr6mmCdAOCwjugsd-80" target="j15NHr6mmCdAOCwjugsd-87" edge="1">
          <mxGeometry relative="1" as="geometry" />
        </mxCell>
        <mxCell id="j15NHr6mmCdAOCwjugsd-80" value="pilihan admin&lt;div&gt;= 5&lt;/div&gt;" style="rhombus;whiteSpace=wrap;html=1;" parent="1" vertex="1">
          <mxGeometry x="-241" y="1550" width="80" height="80" as="geometry" />
        </mxCell>
        <mxCell id="TcDW0OOKa5HVjLUOx_Y9-29" value="" style="edgeStyle=orthogonalEdgeStyle;rounded=0;orthogonalLoop=1;jettySize=auto;html=1;entryX=1;entryY=0.5;entryDx=0;entryDy=0;" edge="1" parent="1" source="j15NHr6mmCdAOCwjugsd-84" target="j15NHr6mmCdAOCwjugsd-33">
          <mxGeometry relative="1" as="geometry">
            <mxPoint x="-201" y="1852.5" as="targetPoint" />
            <Array as="points">
              <mxPoint x="-201" y="1970" />
              <mxPoint x="740" y="1970" />
              <mxPoint x="740" y="1310" />
            </Array>
          </mxGeometry>
        </mxCell>
        <mxCell id="j15NHr6mmCdAOCwjugsd-84" value="Paket silver&lt;div&gt;Paket Gold&lt;/div&gt;&lt;div&gt;Paket Platinum&lt;/div&gt;&lt;div&gt;Paket Diamond&lt;/div&gt;" style="shape=parallelogram;perimeter=parallelogramPerimeter;whiteSpace=wrap;html=1;fixedSize=1;" parent="1" vertex="1">
          <mxGeometry x="-276" y="1667.5" width="150" height="70" as="geometry" />
        </mxCell>
        <mxCell id="j15NHr6mmCdAOCwjugsd-86" value="" style="edgeStyle=orthogonalEdgeStyle;rounded=0;orthogonalLoop=1;jettySize=auto;html=1;" parent="1" edge="1">
          <mxGeometry relative="1" as="geometry">
            <mxPoint x="-168" y="1734" as="sourcePoint" />
            <mxPoint x="-103" y="1734" as="targetPoint" />
          </mxGeometry>
        </mxCell>
        <mxCell id="j15NHr6mmCdAOCwjugsd-90" value="" style="edgeStyle=orthogonalEdgeStyle;rounded=0;orthogonalLoop=1;jettySize=auto;html=1;" parent="1" source="j15NHr6mmCdAOCwjugsd-87" target="j15NHr6mmCdAOCwjugsd-89" edge="1">
          <mxGeometry relative="1" as="geometry" />
        </mxCell>
        <mxCell id="j15NHr6mmCdAOCwjugsd-200" value="" style="edgeStyle=orthogonalEdgeStyle;rounded=0;orthogonalLoop=1;jettySize=auto;html=1;" parent="1" source="j15NHr6mmCdAOCwjugsd-87" target="j15NHr6mmCdAOCwjugsd-199" edge="1">
          <mxGeometry relative="1" as="geometry" />
        </mxCell>
        <mxCell id="j15NHr6mmCdAOCwjugsd-87" value="pilihan admin&lt;div&gt;= 6&lt;/div&gt;" style="rhombus;whiteSpace=wrap;html=1;" parent="1" vertex="1">
          <mxGeometry x="-415" y="1550" width="80" height="80" as="geometry" />
        </mxCell>
        <mxCell id="j15NHr6mmCdAOCwjugsd-89" value="END" style="ellipse;whiteSpace=wrap;html=1;" parent="1" vertex="1">
          <mxGeometry x="-427.5" y="1681.5" width="105" height="70" as="geometry" />
        </mxCell>
        <mxCell id="j15NHr6mmCdAOCwjugsd-93" value="tidak" style="text;html=1;align=center;verticalAlign=middle;resizable=0;points=[];autosize=1;strokeColor=none;fillColor=none;" parent="1" vertex="1">
          <mxGeometry x="340" y="660" width="50" height="30" as="geometry" />
        </mxCell>
        <mxCell id="j15NHr6mmCdAOCwjugsd-96" value="ya" style="text;html=1;align=center;verticalAlign=middle;resizable=0;points=[];autosize=1;strokeColor=none;fillColor=none;" parent="1" vertex="1">
          <mxGeometry x="380" y="730" width="40" height="30" as="geometry" />
        </mxCell>
        <mxCell id="j15NHr6mmCdAOCwjugsd-100" value="" style="edgeStyle=orthogonalEdgeStyle;rounded=0;orthogonalLoop=1;jettySize=auto;html=1;" parent="1" source="j15NHr6mmCdAOCwjugsd-16" target="j15NHr6mmCdAOCwjugsd-99" edge="1">
          <mxGeometry relative="1" as="geometry">
            <mxPoint x="730" y="370" as="sourcePoint" />
            <mxPoint x="730" y="540" as="targetPoint" />
          </mxGeometry>
        </mxCell>
        <mxCell id="j15NHr6mmCdAOCwjugsd-99" value="Terima kasih telah menggunakan sistem penyewaan photobox!" style="shape=parallelogram;html=1;strokeWidth=2;perimeter=parallelogramPerimeter;whiteSpace=wrap;rounded=1;arcSize=12;size=0.23;" parent="1" vertex="1">
          <mxGeometry x="650" y="430" width="160" height="60" as="geometry" />
        </mxCell>
        <mxCell id="j15NHr6mmCdAOCwjugsd-109" value="" style="edgeStyle=orthogonalEdgeStyle;rounded=0;orthogonalLoop=1;jettySize=auto;html=1;" parent="1" source="j15NHr6mmCdAOCwjugsd-106" target="j15NHr6mmCdAOCwjugsd-108" edge="1">
          <mxGeometry relative="1" as="geometry" />
        </mxCell>
        <mxCell id="j15NHr6mmCdAOCwjugsd-106" value="masukkan username dan password baru" style="shape=parallelogram;perimeter=parallelogramPerimeter;whiteSpace=wrap;html=1;fixedSize=1;" parent="1" vertex="1">
          <mxGeometry x="505" y="540" width="135" height="60" as="geometry" />
        </mxCell>
        <mxCell id="j15NHr6mmCdAOCwjugsd-108" value="registrasi username &amp;amp;&lt;div&gt;dan password baru&lt;/div&gt;" style="whiteSpace=wrap;html=1;" parent="1" vertex="1">
          <mxGeometry x="512.5" y="645" width="120" height="60" as="geometry" />
        </mxCell>
        <mxCell id="j15NHr6mmCdAOCwjugsd-138" value="" style="edgeStyle=orthogonalEdgeStyle;rounded=0;orthogonalLoop=1;jettySize=auto;html=1;" parent="1" source="j15NHr6mmCdAOCwjugsd-129" edge="1">
          <mxGeometry relative="1" as="geometry">
            <mxPoint x="-347.5" y="450.0000000000002" as="targetPoint" />
          </mxGeometry>
        </mxCell>
        <mxCell id="j15NHr6mmCdAOCwjugsd-129" value="&lt;div&gt;1. Tambah Data Pelanggan (Create)&lt;/div&gt;&lt;div&gt;2. Lihat Data Pelanggan (Read)&lt;/div&gt;&lt;div&gt;5. Lihat Daftar Paket Photobox&lt;/div&gt;&lt;div&gt;6. Logout&lt;/div&gt;&lt;div&gt;&lt;br&gt;&lt;/div&gt;" style="shape=parallelogram;perimeter=parallelogramPerimeter;whiteSpace=wrap;html=1;fixedSize=1;" parent="1" vertex="1">
          <mxGeometry x="-485" y="190" width="275" height="115" as="geometry" />
        </mxCell>
        <mxCell id="j15NHr6mmCdAOCwjugsd-133" value="" style="edgeStyle=orthogonalEdgeStyle;rounded=0;orthogonalLoop=1;jettySize=auto;html=1;" parent="1" edge="1">
          <mxGeometry relative="1" as="geometry">
            <mxPoint x="-283" y="291" as="sourcePoint" />
            <mxPoint x="-163" y="291" as="targetPoint" />
          </mxGeometry>
        </mxCell>
        <mxCell id="j15NHr6mmCdAOCwjugsd-143" value="" style="edgeStyle=orthogonalEdgeStyle;rounded=0;orthogonalLoop=1;jettySize=auto;html=1;" parent="1" source="j15NHr6mmCdAOCwjugsd-140" edge="1">
          <mxGeometry relative="1" as="geometry">
            <mxPoint x="-347.5" y="588" as="targetPoint" />
          </mxGeometry>
        </mxCell>
        <mxCell id="j15NHr6mmCdAOCwjugsd-149" value="" style="edgeStyle=orthogonalEdgeStyle;rounded=0;orthogonalLoop=1;jettySize=auto;html=1;" parent="1" source="j15NHr6mmCdAOCwjugsd-140" target="j15NHr6mmCdAOCwjugsd-148" edge="1">
          <mxGeometry relative="1" as="geometry" />
        </mxCell>
        <mxCell id="j15NHr6mmCdAOCwjugsd-140" value="pilihan&lt;div&gt;= 1&lt;/div&gt;" style="rhombus;whiteSpace=wrap;html=1;" parent="1" vertex="1">
          <mxGeometry x="-387.5" y="450" width="80" height="80" as="geometry" />
        </mxCell>
        <mxCell id="j15NHr6mmCdAOCwjugsd-151" value="" style="edgeStyle=orthogonalEdgeStyle;rounded=0;orthogonalLoop=1;jettySize=auto;html=1;" parent="1" source="j15NHr6mmCdAOCwjugsd-148" edge="1">
          <mxGeometry relative="1" as="geometry">
            <mxPoint x="-500" y="594.5" as="targetPoint" />
          </mxGeometry>
        </mxCell>
        <mxCell id="j15NHr6mmCdAOCwjugsd-153" value="" style="edgeStyle=orthogonalEdgeStyle;rounded=0;orthogonalLoop=1;jettySize=auto;html=1;" parent="1" source="j15NHr6mmCdAOCwjugsd-148" edge="1">
          <mxGeometry relative="1" as="geometry">
            <mxPoint x="-620" y="490" as="targetPoint" />
          </mxGeometry>
        </mxCell>
        <mxCell id="j15NHr6mmCdAOCwjugsd-148" value="pilihan&amp;nbsp;&lt;div&gt;= 2&lt;/div&gt;" style="rhombus;whiteSpace=wrap;html=1;" parent="1" vertex="1">
          <mxGeometry x="-540" y="450" width="80" height="80" as="geometry" />
        </mxCell>
        <mxCell id="j15NHr6mmCdAOCwjugsd-156" value="" style="edgeStyle=orthogonalEdgeStyle;rounded=0;orthogonalLoop=1;jettySize=auto;html=1;" parent="1" source="j15NHr6mmCdAOCwjugsd-154" target="j15NHr6mmCdAOCwjugsd-155" edge="1">
          <mxGeometry relative="1" as="geometry" />
        </mxCell>
        <mxCell id="j15NHr6mmCdAOCwjugsd-203" value="" style="edgeStyle=orthogonalEdgeStyle;rounded=0;orthogonalLoop=1;jettySize=auto;html=1;" parent="1" source="j15NHr6mmCdAOCwjugsd-154" edge="1">
          <mxGeometry relative="1" as="geometry">
            <mxPoint x="-750" y="490" as="targetPoint" />
          </mxGeometry>
        </mxCell>
        <mxCell id="j15NHr6mmCdAOCwjugsd-154" value="pilihan&lt;div&gt;= 5&lt;/div&gt;" style="rhombus;whiteSpace=wrap;html=1;" parent="1" vertex="1">
          <mxGeometry x="-700" y="450" width="80" height="80" as="geometry" />
        </mxCell>
        <mxCell id="TcDW0OOKa5HVjLUOx_Y9-126" value="" style="edgeStyle=orthogonalEdgeStyle;rounded=0;orthogonalLoop=1;jettySize=auto;html=1;entryX=1;entryY=0.5;entryDx=0;entryDy=0;" edge="1" parent="1" source="j15NHr6mmCdAOCwjugsd-155" target="j15NHr6mmCdAOCwjugsd-129">
          <mxGeometry relative="1" as="geometry">
            <mxPoint x="-660" y="775" as="targetPoint" />
            <Array as="points">
              <mxPoint x="-660" y="770" />
              <mxPoint x="-110" y="770" />
              <mxPoint x="-110" y="248" />
            </Array>
          </mxGeometry>
        </mxCell>
        <mxCell id="j15NHr6mmCdAOCwjugsd-155" value="Paket silver&lt;div&gt;Paket Gold&lt;/div&gt;&lt;div&gt;Paket Platinum&lt;/div&gt;&lt;div&gt;Paket Diamond&lt;/div&gt;" style="shape=parallelogram;perimeter=parallelogramPerimeter;whiteSpace=wrap;html=1;fixedSize=1;" parent="1" vertex="1">
          <mxGeometry x="-735" y="590" width="150" height="70" as="geometry" />
        </mxCell>
        <mxCell id="j15NHr6mmCdAOCwjugsd-157" value="" style="edgeStyle=orthogonalEdgeStyle;rounded=0;orthogonalLoop=1;jettySize=auto;html=1;" parent="1" edge="1">
          <mxGeometry relative="1" as="geometry">
            <mxPoint x="-645" y="656" as="sourcePoint" />
            <mxPoint x="-580" y="656" as="targetPoint" />
          </mxGeometry>
        </mxCell>
        <mxCell id="j15NHr6mmCdAOCwjugsd-167" value="tidak" style="text;html=1;align=center;verticalAlign=middle;resizable=0;points=[];autosize=1;strokeColor=none;fillColor=none;" parent="1" vertex="1">
          <mxGeometry x="-440" y="460" width="50" height="30" as="geometry" />
        </mxCell>
        <mxCell id="j15NHr6mmCdAOCwjugsd-168" value="ya" style="text;html=1;align=center;verticalAlign=middle;resizable=0;points=[];autosize=1;strokeColor=none;fillColor=none;" parent="1" vertex="1">
          <mxGeometry x="-340" y="528" width="40" height="30" as="geometry" />
        </mxCell>
        <mxCell id="j15NHr6mmCdAOCwjugsd-169" value="tidak" style="text;html=1;align=center;verticalAlign=middle;resizable=0;points=[];autosize=1;strokeColor=none;fillColor=none;" parent="1" vertex="1">
          <mxGeometry x="-600" y="460" width="50" height="30" as="geometry" />
        </mxCell>
        <mxCell id="j15NHr6mmCdAOCwjugsd-170" value="ya" style="text;html=1;align=center;verticalAlign=middle;resizable=0;points=[];autosize=1;strokeColor=none;fillColor=none;" parent="1" vertex="1">
          <mxGeometry x="-502" y="538" width="40" height="30" as="geometry" />
        </mxCell>
        <mxCell id="j15NHr6mmCdAOCwjugsd-171" value="tidak" style="text;html=1;align=center;verticalAlign=middle;resizable=0;points=[];autosize=1;strokeColor=none;fillColor=none;" parent="1" vertex="1">
          <mxGeometry x="-735" y="450" width="50" height="30" as="geometry" />
        </mxCell>
        <mxCell id="j15NHr6mmCdAOCwjugsd-173" value="ya" style="text;html=1;align=center;verticalAlign=middle;resizable=0;points=[];autosize=1;strokeColor=none;fillColor=none;" parent="1" vertex="1">
          <mxGeometry x="-650" y="538" width="40" height="30" as="geometry" />
        </mxCell>
        <mxCell id="j15NHr6mmCdAOCwjugsd-174" value="ya" style="text;html=1;align=center;verticalAlign=middle;resizable=0;points=[];autosize=1;strokeColor=none;fillColor=none;" parent="1" vertex="1">
          <mxGeometry x="423" y="380" width="40" height="30" as="geometry" />
        </mxCell>
        <mxCell id="j15NHr6mmCdAOCwjugsd-175" value="ya" style="text;html=1;align=center;verticalAlign=middle;resizable=0;points=[];autosize=1;strokeColor=none;fillColor=none;" parent="1" vertex="1">
          <mxGeometry x="577" y="380" width="40" height="30" as="geometry" />
        </mxCell>
        <mxCell id="j15NHr6mmCdAOCwjugsd-176" value="ya" style="text;html=1;align=center;verticalAlign=middle;resizable=0;points=[];autosize=1;strokeColor=none;fillColor=none;" parent="1" vertex="1">
          <mxGeometry x="740" y="380" width="40" height="30" as="geometry" />
        </mxCell>
        <mxCell id="j15NHr6mmCdAOCwjugsd-177" value="tidak" style="text;html=1;align=center;verticalAlign=middle;resizable=0;points=[];autosize=1;strokeColor=none;fillColor=none;" parent="1" vertex="1">
          <mxGeometry x="462" y="295" width="50" height="30" as="geometry" />
        </mxCell>
        <mxCell id="j15NHr6mmCdAOCwjugsd-178" value="tidak" style="text;html=1;align=center;verticalAlign=middle;resizable=0;points=[];autosize=1;strokeColor=none;fillColor=none;" parent="1" vertex="1">
          <mxGeometry x="631" y="292" width="50" height="30" as="geometry" />
        </mxCell>
        <mxCell id="j15NHr6mmCdAOCwjugsd-184" value="Menu tidak Valid" style="shape=parallelogram;html=1;strokeWidth=2;perimeter=parallelogramPerimeter;whiteSpace=wrap;rounded=1;arcSize=12;size=0.23;" parent="1" vertex="1">
          <mxGeometry x="805" y="300" width="160" height="60" as="geometry" />
        </mxCell>
        <mxCell id="j15NHr6mmCdAOCwjugsd-185" value="" style="edgeStyle=orthogonalEdgeStyle;rounded=0;orthogonalLoop=1;jettySize=auto;html=1;" parent="1" edge="1">
          <mxGeometry relative="1" as="geometry">
            <mxPoint x="757" y="485" as="sourcePoint" />
            <mxPoint x="816" y="485" as="targetPoint" />
          </mxGeometry>
        </mxCell>
        <mxCell id="j15NHr6mmCdAOCwjugsd-187" value="tidak" style="text;html=1;align=center;verticalAlign=middle;resizable=0;points=[];autosize=1;strokeColor=none;fillColor=none;" parent="1" vertex="1">
          <mxGeometry x="755" y="292" width="50" height="30" as="geometry" />
        </mxCell>
        <mxCell id="j15NHr6mmCdAOCwjugsd-188" value="tidak" style="text;html=1;align=center;verticalAlign=middle;resizable=0;points=[];autosize=1;strokeColor=none;fillColor=none;" parent="1" vertex="1">
          <mxGeometry x="320" y="1550" width="50" height="30" as="geometry" />
        </mxCell>
        <mxCell id="j15NHr6mmCdAOCwjugsd-189" value="tidak" style="text;html=1;align=center;verticalAlign=middle;resizable=0;points=[];autosize=1;strokeColor=none;fillColor=none;" parent="1" vertex="1">
          <mxGeometry x="160" y="1550" width="50" height="30" as="geometry" />
        </mxCell>
        <mxCell id="j15NHr6mmCdAOCwjugsd-190" value="tidak" style="text;html=1;align=center;verticalAlign=middle;resizable=0;points=[];autosize=1;strokeColor=none;fillColor=none;" parent="1" vertex="1">
          <mxGeometry x="40" y="1551" width="50" height="30" as="geometry" />
        </mxCell>
        <mxCell id="j15NHr6mmCdAOCwjugsd-191" value="tidak" style="text;html=1;align=center;verticalAlign=middle;resizable=0;points=[];autosize=1;strokeColor=none;fillColor=none;" parent="1" vertex="1">
          <mxGeometry x="-124" y="1552" width="50" height="30" as="geometry" />
        </mxCell>
        <mxCell id="j15NHr6mmCdAOCwjugsd-192" value="tidak" style="text;html=1;align=center;verticalAlign=middle;resizable=0;points=[];autosize=1;strokeColor=none;fillColor=none;" parent="1" vertex="1">
          <mxGeometry x="-460" y="1550" width="50" height="30" as="geometry" />
        </mxCell>
        <mxCell id="j15NHr6mmCdAOCwjugsd-194" value="ya" style="text;html=1;align=center;verticalAlign=middle;resizable=0;points=[];autosize=1;strokeColor=none;fillColor=none;" parent="1" vertex="1">
          <mxGeometry x="-262.5" y="1630" width="40" height="30" as="geometry" />
        </mxCell>
        <mxCell id="j15NHr6mmCdAOCwjugsd-195" value="ya" style="text;html=1;align=center;verticalAlign=middle;resizable=0;points=[];autosize=1;strokeColor=none;fillColor=none;" parent="1" vertex="1">
          <mxGeometry x="-425" y="1635" width="40" height="30" as="geometry" />
        </mxCell>
        <mxCell id="j15NHr6mmCdAOCwjugsd-197" value="ya" style="text;html=1;align=center;verticalAlign=middle;resizable=0;points=[];autosize=1;strokeColor=none;fillColor=none;" parent="1" vertex="1">
          <mxGeometry x="210" y="1630" width="40" height="30" as="geometry" />
        </mxCell>
        <mxCell id="j15NHr6mmCdAOCwjugsd-198" value="ya" style="text;html=1;align=center;verticalAlign=middle;resizable=0;points=[];autosize=1;strokeColor=none;fillColor=none;" parent="1" vertex="1">
          <mxGeometry x="370" y="1630" width="40" height="30" as="geometry" />
        </mxCell>
        <mxCell id="TcDW0OOKa5HVjLUOx_Y9-31" value="" style="edgeStyle=orthogonalEdgeStyle;rounded=0;orthogonalLoop=1;jettySize=auto;html=1;entryX=0;entryY=0.5;entryDx=0;entryDy=0;" edge="1" parent="1" source="j15NHr6mmCdAOCwjugsd-199" target="j15NHr6mmCdAOCwjugsd-33">
          <mxGeometry relative="1" as="geometry">
            <mxPoint x="-805" y="1590" as="targetPoint" />
            <Array as="points">
              <mxPoint x="-710" y="1590" />
              <mxPoint x="-710" y="1310" />
            </Array>
          </mxGeometry>
        </mxCell>
        <mxCell id="j15NHr6mmCdAOCwjugsd-199" value="Menu tidak Valid" style="shape=parallelogram;html=1;strokeWidth=2;perimeter=parallelogramPerimeter;whiteSpace=wrap;rounded=1;arcSize=12;size=0.23;" parent="1" vertex="1">
          <mxGeometry x="-645" y="1560" width="160" height="60" as="geometry" />
        </mxCell>
        <mxCell id="j15NHr6mmCdAOCwjugsd-201" value="" style="edgeStyle=orthogonalEdgeStyle;rounded=0;orthogonalLoop=1;jettySize=auto;html=1;" parent="1" edge="1">
          <mxGeometry relative="1" as="geometry">
            <mxPoint x="-545" y="1613" as="sourcePoint" />
            <mxPoint x="-480" y="1613" as="targetPoint" />
          </mxGeometry>
        </mxCell>
        <mxCell id="TcDW0OOKa5HVjLUOx_Y9-91" value="" style="edgeStyle=orthogonalEdgeStyle;rounded=0;orthogonalLoop=1;jettySize=auto;html=1;entryX=0;entryY=0.5;entryDx=0;entryDy=0;" edge="1" parent="1" source="hqG3hTB7xKrccAEoL0Ke-11" target="j15NHr6mmCdAOCwjugsd-18">
          <mxGeometry relative="1" as="geometry">
            <mxPoint x="70" y="690" as="targetPoint" />
            <Array as="points">
              <mxPoint x="110" y="690" />
              <mxPoint x="110" y="570" />
            </Array>
          </mxGeometry>
        </mxCell>
        <mxCell id="hqG3hTB7xKrccAEoL0Ke-11" value="login gagal" style="shape=parallelogram;perimeter=parallelogramPerimeter;whiteSpace=wrap;html=1;fixedSize=1;" parent="1" vertex="1">
          <mxGeometry x="210" y="660" width="120" height="60" as="geometry" />
        </mxCell>
        <mxCell id="TcDW0OOKa5HVjLUOx_Y9-1" value="" style="endArrow=classic;html=1;rounded=0;" edge="1" parent="1">
          <mxGeometry width="50" height="50" relative="1" as="geometry">
            <mxPoint x="300" y="710" as="sourcePoint" />
            <mxPoint x="370" y="710" as="targetPoint" />
          </mxGeometry>
        </mxCell>
        <mxCell id="TcDW0OOKa5HVjLUOx_Y9-5" value="" style="edgeStyle=orthogonalEdgeStyle;rounded=0;orthogonalLoop=1;jettySize=auto;html=1;" edge="1" parent="1" source="TcDW0OOKa5HVjLUOx_Y9-3" target="TcDW0OOKa5HVjLUOx_Y9-4">
          <mxGeometry relative="1" as="geometry" />
        </mxCell>
        <mxCell id="TcDW0OOKa5HVjLUOx_Y9-10" value="" style="edgeStyle=orthogonalEdgeStyle;rounded=0;orthogonalLoop=1;jettySize=auto;html=1;" edge="1" parent="1" source="TcDW0OOKa5HVjLUOx_Y9-3" target="TcDW0OOKa5HVjLUOx_Y9-9">
          <mxGeometry relative="1" as="geometry" />
        </mxCell>
        <mxCell id="TcDW0OOKa5HVjLUOx_Y9-3" value="username=admin&lt;div&gt;password=108&lt;/div&gt;" style="rhombus;whiteSpace=wrap;html=1;" vertex="1" parent="1">
          <mxGeometry x="360" y="780" width="130" height="110" as="geometry" />
        </mxCell>
        <mxCell id="TcDW0OOKa5HVjLUOx_Y9-7" value="" style="edgeStyle=orthogonalEdgeStyle;rounded=0;orthogonalLoop=1;jettySize=auto;html=1;" edge="1" parent="1" source="TcDW0OOKa5HVjLUOx_Y9-4" target="TcDW0OOKa5HVjLUOx_Y9-6">
          <mxGeometry relative="1" as="geometry" />
        </mxCell>
        <mxCell id="TcDW0OOKa5HVjLUOx_Y9-4" value="user_baru &amp;amp; password_baru" style="whiteSpace=wrap;html=1;" vertex="1" parent="1">
          <mxGeometry x="545" y="805" width="120" height="60" as="geometry" />
        </mxCell>
        <mxCell id="TcDW0OOKa5HVjLUOx_Y9-6" value="menu&lt;div&gt;guest&lt;/div&gt;" style="shape=process;whiteSpace=wrap;html=1;backgroundOutline=1;" vertex="1" parent="1">
          <mxGeometry x="545" y="930" width="120" height="60" as="geometry" />
        </mxCell>
        <mxCell id="TcDW0OOKa5HVjLUOx_Y9-9" value="menu&lt;div&gt;admin&lt;/div&gt;" style="shape=process;whiteSpace=wrap;html=1;backgroundOutline=1;" vertex="1" parent="1">
          <mxGeometry x="365" y="930" width="120" height="60" as="geometry" />
        </mxCell>
        <mxCell id="TcDW0OOKa5HVjLUOx_Y9-11" value="menu&lt;div&gt;admin&lt;/div&gt;" style="shape=process;whiteSpace=wrap;html=1;backgroundOutline=1;" vertex="1" parent="1">
          <mxGeometry x="360" y="1130" width="120" height="60" as="geometry" />
        </mxCell>
        <mxCell id="TcDW0OOKa5HVjLUOx_Y9-13" style="edgeStyle=orthogonalEdgeStyle;rounded=0;orthogonalLoop=1;jettySize=auto;html=1;exitX=0.5;exitY=1;exitDx=0;exitDy=0;" edge="1" parent="1">
          <mxGeometry relative="1" as="geometry">
            <mxPoint x="-349" y="190" as="targetPoint" />
            <mxPoint x="-349" y="140" as="sourcePoint" />
          </mxGeometry>
        </mxCell>
        <mxCell id="TcDW0OOKa5HVjLUOx_Y9-12" value="menu&lt;div&gt;guest&lt;/div&gt;" style="shape=process;whiteSpace=wrap;html=1;backgroundOutline=1;" vertex="1" parent="1">
          <mxGeometry x="-400" y="80" width="120" height="60" as="geometry" />
        </mxCell>
        <mxCell id="TcDW0OOKa5HVjLUOx_Y9-36" value="" style="edgeStyle=orthogonalEdgeStyle;rounded=0;orthogonalLoop=1;jettySize=auto;html=1;" edge="1" parent="1">
          <mxGeometry relative="1" as="geometry">
            <mxPoint x="414.9756097560976" y="1731.5" as="sourcePoint" />
            <mxPoint x="535" y="1310" as="targetPoint" />
            <Array as="points">
              <mxPoint x="415" y="1970" />
              <mxPoint x="740" y="1970" />
              <mxPoint x="740" y="1310" />
            </Array>
          </mxGeometry>
        </mxCell>
        <mxCell id="TcDW0OOKa5HVjLUOx_Y9-14" value="tambah data" style="shape=process;whiteSpace=wrap;html=1;backgroundOutline=1;" vertex="1" parent="1">
          <mxGeometry x="360" y="1671.5" width="120" height="60" as="geometry" />
        </mxCell>
        <mxCell id="TcDW0OOKa5HVjLUOx_Y9-16" value="tampilkan data" style="shape=process;whiteSpace=wrap;html=1;backgroundOutline=1;" vertex="1" parent="1">
          <mxGeometry x="203" y="1670" width="120" height="60" as="geometry" />
        </mxCell>
        <mxCell id="TcDW0OOKa5HVjLUOx_Y9-25" value="" style="edgeStyle=orthogonalEdgeStyle;rounded=0;orthogonalLoop=1;jettySize=auto;html=1;entryX=1;entryY=0.5;entryDx=0;entryDy=0;" edge="1" parent="1" source="TcDW0OOKa5HVjLUOx_Y9-17" target="j15NHr6mmCdAOCwjugsd-33">
          <mxGeometry relative="1" as="geometry">
            <mxPoint x="120" y="1840" as="targetPoint" />
            <Array as="points">
              <mxPoint x="120" y="1970" />
              <mxPoint x="740" y="1970" />
              <mxPoint x="740" y="1310" />
            </Array>
          </mxGeometry>
        </mxCell>
        <mxCell id="TcDW0OOKa5HVjLUOx_Y9-17" value="ubah data" style="shape=process;whiteSpace=wrap;html=1;backgroundOutline=1;" vertex="1" parent="1">
          <mxGeometry x="60" y="1670" width="120" height="60" as="geometry" />
        </mxCell>
        <mxCell id="TcDW0OOKa5HVjLUOx_Y9-27" value="" style="edgeStyle=orthogonalEdgeStyle;rounded=0;orthogonalLoop=1;jettySize=auto;html=1;entryX=1;entryY=0.5;entryDx=0;entryDy=0;" edge="1" parent="1" source="TcDW0OOKa5HVjLUOx_Y9-19" target="j15NHr6mmCdAOCwjugsd-33">
          <mxGeometry relative="1" as="geometry">
            <mxPoint x="-15" y="1840" as="targetPoint" />
            <Array as="points">
              <mxPoint x="-15" y="1970" />
              <mxPoint x="740" y="1970" />
              <mxPoint x="740" y="1310" />
            </Array>
          </mxGeometry>
        </mxCell>
        <mxCell id="TcDW0OOKa5HVjLUOx_Y9-19" value="hapus data" style="shape=process;whiteSpace=wrap;html=1;backgroundOutline=1;" vertex="1" parent="1">
          <mxGeometry x="-75" y="1670" width="120" height="60" as="geometry" />
        </mxCell>
        <mxCell id="TcDW0OOKa5HVjLUOx_Y9-20" style="edgeStyle=orthogonalEdgeStyle;rounded=0;orthogonalLoop=1;jettySize=auto;html=1;exitX=0.5;exitY=1;exitDx=0;exitDy=0;entryX=0.456;entryY=0;entryDx=0;entryDy=0;entryPerimeter=0;" edge="1" parent="1" source="j15NHr6mmCdAOCwjugsd-73" target="TcDW0OOKa5HVjLUOx_Y9-19">
          <mxGeometry relative="1" as="geometry" />
        </mxCell>
        <mxCell id="TcDW0OOKa5HVjLUOx_Y9-34" value="" style="edgeStyle=orthogonalEdgeStyle;rounded=0;orthogonalLoop=1;jettySize=auto;html=1;" edge="1" parent="1" source="TcDW0OOKa5HVjLUOx_Y9-32" target="TcDW0OOKa5HVjLUOx_Y9-33">
          <mxGeometry relative="1" as="geometry" />
        </mxCell>
        <mxCell id="TcDW0OOKa5HVjLUOx_Y9-104" value="" style="edgeStyle=orthogonalEdgeStyle;rounded=0;orthogonalLoop=1;jettySize=auto;html=1;" edge="1" parent="1" source="TcDW0OOKa5HVjLUOx_Y9-32" target="TcDW0OOKa5HVjLUOx_Y9-103">
          <mxGeometry relative="1" as="geometry" />
        </mxCell>
        <mxCell id="TcDW0OOKa5HVjLUOx_Y9-32" value="pilihan&lt;div&gt;= 6&lt;/div&gt;" style="rhombus;whiteSpace=wrap;html=1;" vertex="1" parent="1">
          <mxGeometry x="-830" y="448" width="80" height="80" as="geometry" />
        </mxCell>
        <mxCell id="TcDW0OOKa5HVjLUOx_Y9-33" value="END" style="ellipse;whiteSpace=wrap;html=1;" vertex="1" parent="1">
          <mxGeometry x="-830" y="600" width="80" height="60" as="geometry" />
        </mxCell>
        <mxCell id="TcDW0OOKa5HVjLUOx_Y9-124" value="" style="edgeStyle=orthogonalEdgeStyle;rounded=0;orthogonalLoop=1;jettySize=auto;html=1;entryX=1;entryY=0.5;entryDx=0;entryDy=0;" edge="1" parent="1" source="TcDW0OOKa5HVjLUOx_Y9-38" target="j15NHr6mmCdAOCwjugsd-129">
          <mxGeometry relative="1" as="geometry">
            <mxPoint x="-347.5" y="762" as="targetPoint" />
            <Array as="points">
              <mxPoint x="-348" y="770" />
              <mxPoint x="-110" y="770" />
              <mxPoint x="-110" y="248" />
            </Array>
          </mxGeometry>
        </mxCell>
        <mxCell id="TcDW0OOKa5HVjLUOx_Y9-38" value="tambah data" style="shape=process;whiteSpace=wrap;html=1;backgroundOutline=1;" vertex="1" parent="1">
          <mxGeometry x="-407.5" y="592" width="120" height="60" as="geometry" />
        </mxCell>
        <mxCell id="TcDW0OOKa5HVjLUOx_Y9-122" value="" style="edgeStyle=orthogonalEdgeStyle;rounded=0;orthogonalLoop=1;jettySize=auto;html=1;entryX=1;entryY=0.5;entryDx=0;entryDy=0;" edge="1" parent="1" source="TcDW0OOKa5HVjLUOx_Y9-39" target="j15NHr6mmCdAOCwjugsd-129">
          <mxGeometry relative="1" as="geometry">
            <mxPoint x="-502" y="765" as="targetPoint" />
            <Array as="points">
              <mxPoint x="-502" y="770" />
              <mxPoint x="-110" y="770" />
              <mxPoint x="-110" y="248" />
              <mxPoint x="-220" y="248" />
            </Array>
          </mxGeometry>
        </mxCell>
        <mxCell id="TcDW0OOKa5HVjLUOx_Y9-39" value="lihat data" style="shape=process;whiteSpace=wrap;html=1;backgroundOutline=1;" vertex="1" parent="1">
          <mxGeometry x="-562" y="595" width="120" height="60" as="geometry" />
        </mxCell>
        <mxCell id="TcDW0OOKa5HVjLUOx_Y9-42" value="" style="edgeStyle=orthogonalEdgeStyle;rounded=0;orthogonalLoop=1;jettySize=auto;html=1;" edge="1" parent="1" source="TcDW0OOKa5HVjLUOx_Y9-40" target="TcDW0OOKa5HVjLUOx_Y9-41">
          <mxGeometry relative="1" as="geometry" />
        </mxCell>
        <mxCell id="TcDW0OOKa5HVjLUOx_Y9-40" value="tambah data" style="shape=process;whiteSpace=wrap;html=1;backgroundOutline=1;" vertex="1" parent="1">
          <mxGeometry x="530" y="2220" width="120" height="60" as="geometry" />
        </mxCell>
        <mxCell id="TcDW0OOKa5HVjLUOx_Y9-44" value="" style="edgeStyle=orthogonalEdgeStyle;rounded=0;orthogonalLoop=1;jettySize=auto;html=1;" edge="1" parent="1" source="TcDW0OOKa5HVjLUOx_Y9-48" target="TcDW0OOKa5HVjLUOx_Y9-43">
          <mxGeometry relative="1" as="geometry" />
        </mxCell>
        <mxCell id="TcDW0OOKa5HVjLUOx_Y9-41" value="input id,nama,&lt;div&gt;nomor paket&lt;/div&gt;" style="shape=parallelogram;perimeter=parallelogramPerimeter;whiteSpace=wrap;html=1;fixedSize=1;" vertex="1" parent="1">
          <mxGeometry x="530" y="2329" width="120" height="60" as="geometry" />
        </mxCell>
        <mxCell id="TcDW0OOKa5HVjLUOx_Y9-46" value="" style="edgeStyle=orthogonalEdgeStyle;rounded=0;orthogonalLoop=1;jettySize=auto;html=1;" edge="1" parent="1" source="TcDW0OOKa5HVjLUOx_Y9-43" target="TcDW0OOKa5HVjLUOx_Y9-45">
          <mxGeometry relative="1" as="geometry" />
        </mxCell>
        <mxCell id="TcDW0OOKa5HVjLUOx_Y9-43" value="output data&lt;div&gt;&amp;nbsp;berhasil di tambahkan&lt;/div&gt;" style="shape=parallelogram;perimeter=parallelogramPerimeter;whiteSpace=wrap;html=1;fixedSize=1;" vertex="1" parent="1">
          <mxGeometry x="530" y="2500" width="120" height="60" as="geometry" />
        </mxCell>
        <mxCell id="TcDW0OOKa5HVjLUOx_Y9-45" value="END" style="ellipse;whiteSpace=wrap;html=1;" vertex="1" parent="1">
          <mxGeometry x="550" y="2630" width="80" height="50" as="geometry" />
        </mxCell>
        <mxCell id="TcDW0OOKa5HVjLUOx_Y9-51" value="" style="edgeStyle=orthogonalEdgeStyle;rounded=0;orthogonalLoop=1;jettySize=auto;html=1;" edge="1" parent="1" source="TcDW0OOKa5HVjLUOx_Y9-47" target="TcDW0OOKa5HVjLUOx_Y9-50">
          <mxGeometry relative="1" as="geometry" />
        </mxCell>
        <mxCell id="TcDW0OOKa5HVjLUOx_Y9-47" value="tampilkan data" style="shape=process;whiteSpace=wrap;html=1;backgroundOutline=1;" vertex="1" parent="1">
          <mxGeometry x="323" y="2220" width="120" height="60" as="geometry" />
        </mxCell>
        <mxCell id="TcDW0OOKa5HVjLUOx_Y9-49" value="" style="edgeStyle=orthogonalEdgeStyle;rounded=0;orthogonalLoop=1;jettySize=auto;html=1;" edge="1" parent="1" source="TcDW0OOKa5HVjLUOx_Y9-41" target="TcDW0OOKa5HVjLUOx_Y9-48">
          <mxGeometry relative="1" as="geometry">
            <mxPoint x="590" y="2389" as="sourcePoint" />
            <mxPoint x="590" y="2500" as="targetPoint" />
          </mxGeometry>
        </mxCell>
        <mxCell id="TcDW0OOKa5HVjLUOx_Y9-48" value="menambah&amp;nbsp;&lt;div&gt;data&lt;/div&gt;" style="rounded=0;whiteSpace=wrap;html=1;" vertex="1" parent="1">
          <mxGeometry x="545" y="2417" width="90" height="43" as="geometry" />
        </mxCell>
        <mxCell id="TcDW0OOKa5HVjLUOx_Y9-50" value="output data pelanggan" style="shape=parallelogram;perimeter=parallelogramPerimeter;whiteSpace=wrap;html=1;fixedSize=1;" vertex="1" parent="1">
          <mxGeometry x="323" y="2329" width="120" height="60" as="geometry" />
        </mxCell>
        <mxCell id="TcDW0OOKa5HVjLUOx_Y9-54" value="" style="edgeStyle=orthogonalEdgeStyle;rounded=0;orthogonalLoop=1;jettySize=auto;html=1;" edge="1" parent="1" source="TcDW0OOKa5HVjLUOx_Y9-52" target="TcDW0OOKa5HVjLUOx_Y9-53">
          <mxGeometry relative="1" as="geometry" />
        </mxCell>
        <mxCell id="TcDW0OOKa5HVjLUOx_Y9-52" value="ubah data" style="shape=process;whiteSpace=wrap;html=1;backgroundOutline=1;" vertex="1" parent="1">
          <mxGeometry x="24" y="2220" width="120" height="60" as="geometry" />
        </mxCell>
        <mxCell id="TcDW0OOKa5HVjLUOx_Y9-56" value="" style="edgeStyle=orthogonalEdgeStyle;rounded=0;orthogonalLoop=1;jettySize=auto;html=1;" edge="1" parent="1" source="TcDW0OOKa5HVjLUOx_Y9-53" target="TcDW0OOKa5HVjLUOx_Y9-55">
          <mxGeometry relative="1" as="geometry" />
        </mxCell>
        <mxCell id="TcDW0OOKa5HVjLUOx_Y9-53" value="input id&lt;div&gt;&amp;nbsp;pelanggan&lt;/div&gt;" style="shape=parallelogram;perimeter=parallelogramPerimeter;whiteSpace=wrap;html=1;fixedSize=1;" vertex="1" parent="1">
          <mxGeometry x="24" y="2329" width="120" height="60" as="geometry" />
        </mxCell>
        <mxCell id="TcDW0OOKa5HVjLUOx_Y9-58" value="" style="edgeStyle=orthogonalEdgeStyle;rounded=0;orthogonalLoop=1;jettySize=auto;html=1;" edge="1" parent="1" source="TcDW0OOKa5HVjLUOx_Y9-55" target="TcDW0OOKa5HVjLUOx_Y9-57">
          <mxGeometry relative="1" as="geometry" />
        </mxCell>
        <mxCell id="TcDW0OOKa5HVjLUOx_Y9-127" value="" style="edgeStyle=orthogonalEdgeStyle;rounded=0;orthogonalLoop=1;jettySize=auto;html=1;" edge="1" parent="1" source="TcDW0OOKa5HVjLUOx_Y9-55" target="TcDW0OOKa5HVjLUOx_Y9-63">
          <mxGeometry relative="1" as="geometry" />
        </mxCell>
        <mxCell id="TcDW0OOKa5HVjLUOx_Y9-55" value="id != id pelanggan" style="rhombus;whiteSpace=wrap;html=1;" vertex="1" parent="1">
          <mxGeometry x="44" y="2458" width="80" height="80" as="geometry" />
        </mxCell>
        <mxCell id="TcDW0OOKa5HVjLUOx_Y9-69" value="" style="edgeStyle=orthogonalEdgeStyle;rounded=0;orthogonalLoop=1;jettySize=auto;html=1;entryX=1;entryY=0.5;entryDx=0;entryDy=0;" edge="1" parent="1" source="TcDW0OOKa5HVjLUOx_Y9-57" target="TcDW0OOKa5HVjLUOx_Y9-53">
          <mxGeometry relative="1" as="geometry">
            <mxPoint x="280" y="2629.75" as="targetPoint" />
            <Array as="points">
              <mxPoint x="215" y="2359" />
            </Array>
          </mxGeometry>
        </mxCell>
        <mxCell id="TcDW0OOKa5HVjLUOx_Y9-57" value="id pelanggan&amp;nbsp;&lt;div&gt;tidak&amp;nbsp;&lt;span style=&quot;background-color: transparent; color: light-dark(rgb(0, 0, 0), rgb(255, 255, 255));&quot;&gt;ditemukan&lt;/span&gt;&lt;/div&gt;" style="shape=parallelogram;perimeter=parallelogramPerimeter;whiteSpace=wrap;html=1;fixedSize=1;" vertex="1" parent="1">
          <mxGeometry x="155" y="2472.5" width="120" height="51.5" as="geometry" />
        </mxCell>
        <mxCell id="TcDW0OOKa5HVjLUOx_Y9-65" value="" style="edgeStyle=orthogonalEdgeStyle;rounded=0;orthogonalLoop=1;jettySize=auto;html=1;" edge="1" parent="1" source="TcDW0OOKa5HVjLUOx_Y9-63" target="TcDW0OOKa5HVjLUOx_Y9-64">
          <mxGeometry relative="1" as="geometry" />
        </mxCell>
        <mxCell id="TcDW0OOKa5HVjLUOx_Y9-63" value="input data&amp;nbsp;&lt;div&gt;pelanggan&lt;/div&gt;&lt;div&gt;&amp;nbsp;terbaru&amp;nbsp;&lt;/div&gt;" style="shape=parallelogram;perimeter=parallelogramPerimeter;whiteSpace=wrap;html=1;fixedSize=1;" vertex="1" parent="1">
          <mxGeometry x="24" y="2590" width="120" height="60" as="geometry" />
        </mxCell>
        <mxCell id="TcDW0OOKa5HVjLUOx_Y9-67" value="" style="edgeStyle=orthogonalEdgeStyle;rounded=0;orthogonalLoop=1;jettySize=auto;html=1;" edge="1" parent="1" source="TcDW0OOKa5HVjLUOx_Y9-64" target="TcDW0OOKa5HVjLUOx_Y9-66">
          <mxGeometry relative="1" as="geometry" />
        </mxCell>
        <mxCell id="TcDW0OOKa5HVjLUOx_Y9-64" value="output data pelanggan&lt;div&gt;berhasil di ubah&lt;/div&gt;" style="shape=parallelogram;perimeter=parallelogramPerimeter;whiteSpace=wrap;html=1;fixedSize=1;" vertex="1" parent="1">
          <mxGeometry x="24" y="2690" width="120" height="60" as="geometry" />
        </mxCell>
        <mxCell id="TcDW0OOKa5HVjLUOx_Y9-66" value="END" style="ellipse;whiteSpace=wrap;html=1;" vertex="1" parent="1">
          <mxGeometry x="44" y="2790" width="80" height="50" as="geometry" />
        </mxCell>
        <mxCell id="TcDW0OOKa5HVjLUOx_Y9-72" value="" style="edgeStyle=orthogonalEdgeStyle;rounded=0;orthogonalLoop=1;jettySize=auto;html=1;" edge="1" parent="1" source="TcDW0OOKa5HVjLUOx_Y9-70" target="TcDW0OOKa5HVjLUOx_Y9-71">
          <mxGeometry relative="1" as="geometry" />
        </mxCell>
        <mxCell id="TcDW0OOKa5HVjLUOx_Y9-70" value="hapus data" style="shape=process;whiteSpace=wrap;html=1;backgroundOutline=1;" vertex="1" parent="1">
          <mxGeometry x="-322.5" y="2224" width="120" height="60" as="geometry" />
        </mxCell>
        <mxCell id="TcDW0OOKa5HVjLUOx_Y9-74" value="" style="edgeStyle=orthogonalEdgeStyle;rounded=0;orthogonalLoop=1;jettySize=auto;html=1;" edge="1" parent="1" source="TcDW0OOKa5HVjLUOx_Y9-71" target="TcDW0OOKa5HVjLUOx_Y9-73">
          <mxGeometry relative="1" as="geometry" />
        </mxCell>
        <mxCell id="TcDW0OOKa5HVjLUOx_Y9-71" value="input id&amp;nbsp;&lt;div&gt;pelanggan&lt;/div&gt;" style="shape=parallelogram;perimeter=parallelogramPerimeter;whiteSpace=wrap;html=1;fixedSize=1;" vertex="1" parent="1">
          <mxGeometry x="-322.5" y="2329" width="120" height="60" as="geometry" />
        </mxCell>
        <mxCell id="TcDW0OOKa5HVjLUOx_Y9-76" value="" style="edgeStyle=orthogonalEdgeStyle;rounded=0;orthogonalLoop=1;jettySize=auto;html=1;" edge="1" parent="1" source="TcDW0OOKa5HVjLUOx_Y9-73">
          <mxGeometry relative="1" as="geometry">
            <mxPoint x="-262.5" y="2590" as="targetPoint" />
          </mxGeometry>
        </mxCell>
        <mxCell id="TcDW0OOKa5HVjLUOx_Y9-83" value="" style="edgeStyle=orthogonalEdgeStyle;rounded=0;orthogonalLoop=1;jettySize=auto;html=1;" edge="1" parent="1" source="TcDW0OOKa5HVjLUOx_Y9-73" target="TcDW0OOKa5HVjLUOx_Y9-82">
          <mxGeometry relative="1" as="geometry" />
        </mxCell>
        <mxCell id="TcDW0OOKa5HVjLUOx_Y9-73" value="id != id&lt;div&gt;pelanggan&lt;/div&gt;" style="rhombus;whiteSpace=wrap;html=1;" vertex="1" parent="1">
          <mxGeometry x="-302.5" y="2458.5" width="80" height="80" as="geometry" />
        </mxCell>
        <mxCell id="TcDW0OOKa5HVjLUOx_Y9-87" value="" style="edgeStyle=orthogonalEdgeStyle;rounded=0;orthogonalLoop=1;jettySize=auto;html=1;" edge="1" parent="1" source="TcDW0OOKa5HVjLUOx_Y9-77" target="TcDW0OOKa5HVjLUOx_Y9-86">
          <mxGeometry relative="1" as="geometry" />
        </mxCell>
        <mxCell id="TcDW0OOKa5HVjLUOx_Y9-77" value="output data pelanggan&amp;nbsp;&lt;div&gt;berhasil dihapus&lt;/div&gt;" style="shape=parallelogram;perimeter=parallelogramPerimeter;whiteSpace=wrap;html=1;fixedSize=1;" vertex="1" parent="1">
          <mxGeometry x="-321.25" y="2690" width="120" height="60" as="geometry" />
        </mxCell>
        <mxCell id="TcDW0OOKa5HVjLUOx_Y9-81" value="" style="edgeStyle=orthogonalEdgeStyle;rounded=0;orthogonalLoop=1;jettySize=auto;html=1;" edge="1" parent="1" source="TcDW0OOKa5HVjLUOx_Y9-79" target="TcDW0OOKa5HVjLUOx_Y9-77">
          <mxGeometry relative="1" as="geometry" />
        </mxCell>
        <mxCell id="TcDW0OOKa5HVjLUOx_Y9-79" value="hapus data" style="rounded=0;whiteSpace=wrap;html=1;" vertex="1" parent="1">
          <mxGeometry x="-308.25" y="2590" width="92.5" height="40" as="geometry" />
        </mxCell>
        <mxCell id="TcDW0OOKa5HVjLUOx_Y9-85" value="" style="edgeStyle=orthogonalEdgeStyle;rounded=0;orthogonalLoop=1;jettySize=auto;html=1;entryX=1;entryY=0.5;entryDx=0;entryDy=0;" edge="1" parent="1" source="TcDW0OOKa5HVjLUOx_Y9-82" target="TcDW0OOKa5HVjLUOx_Y9-71">
          <mxGeometry relative="1" as="geometry">
            <mxPoint x="-220" y="2890" as="targetPoint" />
            <Array as="points">
              <mxPoint x="-110" y="2359" />
            </Array>
          </mxGeometry>
        </mxCell>
        <mxCell id="TcDW0OOKa5HVjLUOx_Y9-82" value="id pelanggan&amp;nbsp;&lt;div&gt;tidak&amp;nbsp;&lt;span style=&quot;background-color: transparent; color: light-dark(rgb(0, 0, 0), rgb(255, 255, 255));&quot;&gt;ditemukan&lt;/span&gt;&lt;/div&gt;" style="shape=parallelogram;perimeter=parallelogramPerimeter;whiteSpace=wrap;html=1;fixedSize=1;" vertex="1" parent="1">
          <mxGeometry x="-170" y="2473.25" width="120" height="51.5" as="geometry" />
        </mxCell>
        <mxCell id="TcDW0OOKa5HVjLUOx_Y9-86" value="END" style="ellipse;whiteSpace=wrap;html=1;" vertex="1" parent="1">
          <mxGeometry x="-302" y="2810" width="80" height="50" as="geometry" />
        </mxCell>
        <mxCell id="TcDW0OOKa5HVjLUOx_Y9-89" value="" style="edgeStyle=orthogonalEdgeStyle;rounded=0;orthogonalLoop=1;jettySize=auto;html=1;" edge="1" parent="1">
          <mxGeometry relative="1" as="geometry">
            <mxPoint x="902" y="352" as="sourcePoint" />
            <mxPoint x="961" y="352" as="targetPoint" />
          </mxGeometry>
        </mxCell>
        <mxCell id="TcDW0OOKa5HVjLUOx_Y9-92" value="" style="edgeStyle=orthogonalEdgeStyle;rounded=0;orthogonalLoop=1;jettySize=auto;html=1;" edge="1" parent="1">
          <mxGeometry relative="1" as="geometry">
            <mxPoint x="401" y="2380" as="sourcePoint" />
            <mxPoint x="460" y="2380" as="targetPoint" />
          </mxGeometry>
        </mxCell>
        <mxCell id="TcDW0OOKa5HVjLUOx_Y9-93" value="" style="edgeStyle=orthogonalEdgeStyle;rounded=0;orthogonalLoop=1;jettySize=auto;html=1;" edge="1" parent="1">
          <mxGeometry relative="1" as="geometry">
            <mxPoint x="12" y="2337" as="sourcePoint" />
            <mxPoint x="71" y="2337" as="targetPoint" />
          </mxGeometry>
        </mxCell>
        <mxCell id="TcDW0OOKa5HVjLUOx_Y9-94" value="" style="edgeStyle=orthogonalEdgeStyle;rounded=0;orthogonalLoop=1;jettySize=auto;html=1;" edge="1" parent="1">
          <mxGeometry relative="1" as="geometry">
            <mxPoint x="510" y="2340" as="sourcePoint" />
            <mxPoint x="569" y="2340" as="targetPoint" />
            <Array as="points">
              <mxPoint x="550" y="2340" />
              <mxPoint x="550" y="2340" />
            </Array>
          </mxGeometry>
        </mxCell>
        <mxCell id="TcDW0OOKa5HVjLUOx_Y9-95" value="" style="edgeStyle=orthogonalEdgeStyle;rounded=0;orthogonalLoop=1;jettySize=auto;html=1;" edge="1" parent="1">
          <mxGeometry relative="1" as="geometry">
            <mxPoint x="606" y="2554" as="sourcePoint" />
            <mxPoint x="665" y="2554" as="targetPoint" />
          </mxGeometry>
        </mxCell>
        <mxCell id="TcDW0OOKa5HVjLUOx_Y9-96" value="" style="edgeStyle=orthogonalEdgeStyle;rounded=0;orthogonalLoop=1;jettySize=auto;html=1;" edge="1" parent="1">
          <mxGeometry relative="1" as="geometry">
            <mxPoint x="18" y="2595" as="sourcePoint" />
            <mxPoint x="77" y="2595" as="targetPoint" />
          </mxGeometry>
        </mxCell>
        <mxCell id="TcDW0OOKa5HVjLUOx_Y9-97" value="" style="edgeStyle=orthogonalEdgeStyle;rounded=0;orthogonalLoop=1;jettySize=auto;html=1;" edge="1" parent="1">
          <mxGeometry relative="1" as="geometry">
            <mxPoint x="101" y="2745" as="sourcePoint" />
            <mxPoint x="160" y="2745" as="targetPoint" />
          </mxGeometry>
        </mxCell>
        <mxCell id="TcDW0OOKa5HVjLUOx_Y9-99" value="" style="edgeStyle=orthogonalEdgeStyle;rounded=0;orthogonalLoop=1;jettySize=auto;html=1;" edge="1" parent="1">
          <mxGeometry relative="1" as="geometry">
            <mxPoint x="-241.5" y="2745" as="sourcePoint" />
            <mxPoint x="-182.5" y="2745" as="targetPoint" />
          </mxGeometry>
        </mxCell>
        <mxCell id="TcDW0OOKa5HVjLUOx_Y9-100" value="" style="edgeStyle=orthogonalEdgeStyle;rounded=0;orthogonalLoop=1;jettySize=auto;html=1;" edge="1" parent="1">
          <mxGeometry relative="1" as="geometry">
            <mxPoint x="-339" y="2340" as="sourcePoint" />
            <mxPoint x="-280" y="2340" as="targetPoint" />
          </mxGeometry>
        </mxCell>
        <mxCell id="TcDW0OOKa5HVjLUOx_Y9-101" value="" style="edgeStyle=orthogonalEdgeStyle;rounded=0;orthogonalLoop=1;jettySize=auto;html=1;" edge="1" parent="1">
          <mxGeometry relative="1" as="geometry">
            <mxPoint x="504" y="548" as="sourcePoint" />
            <mxPoint x="563" y="548" as="targetPoint" />
          </mxGeometry>
        </mxCell>
        <mxCell id="TcDW0OOKa5HVjLUOx_Y9-102" value="input pilihan" style="shape=parallelogram;perimeter=parallelogramPerimeter;whiteSpace=wrap;html=1;fixedSize=1;" vertex="1" parent="1">
          <mxGeometry x="-407.5" y="340" width="120" height="60" as="geometry" />
        </mxCell>
        <mxCell id="TcDW0OOKa5HVjLUOx_Y9-108" value="" style="edgeStyle=orthogonalEdgeStyle;rounded=0;orthogonalLoop=1;jettySize=auto;html=1;entryX=0;entryY=0.5;entryDx=0;entryDy=0;" edge="1" parent="1" source="TcDW0OOKa5HVjLUOx_Y9-103" target="j15NHr6mmCdAOCwjugsd-129">
          <mxGeometry relative="1" as="geometry">
            <mxPoint x="-1140" y="488" as="targetPoint" />
            <Array as="points">
              <mxPoint x="-1010" y="488" />
              <mxPoint x="-1010" y="248" />
            </Array>
          </mxGeometry>
        </mxCell>
        <mxCell id="TcDW0OOKa5HVjLUOx_Y9-103" value="output menu&amp;nbsp;&lt;div&gt;tidak valid&lt;/div&gt;" style="shape=parallelogram;perimeter=parallelogramPerimeter;whiteSpace=wrap;html=1;fixedSize=1;" vertex="1" parent="1">
          <mxGeometry x="-1000" y="458" width="120" height="60" as="geometry" />
        </mxCell>
        <mxCell id="TcDW0OOKa5HVjLUOx_Y9-128" value="tidak" style="text;html=1;whiteSpace=wrap;strokeColor=none;fillColor=none;align=center;verticalAlign=middle;rounded=0;" vertex="1" parent="1">
          <mxGeometry x="-230" y="2460" width="60" height="30" as="geometry" />
        </mxCell>
        <mxCell id="TcDW0OOKa5HVjLUOx_Y9-129" value="ya" style="text;html=1;whiteSpace=wrap;strokeColor=none;fillColor=none;align=center;verticalAlign=middle;rounded=0;" vertex="1" parent="1">
          <mxGeometry x="-270" y="2538.5" width="60" height="30" as="geometry" />
        </mxCell>
        <mxCell id="TcDW0OOKa5HVjLUOx_Y9-130" value="tidak" style="text;html=1;whiteSpace=wrap;strokeColor=none;fillColor=none;align=center;verticalAlign=middle;rounded=0;" vertex="1" parent="1">
          <mxGeometry x="110" y="2460" width="60" height="30" as="geometry" />
        </mxCell>
        <mxCell id="TcDW0OOKa5HVjLUOx_Y9-131" value="ya" style="text;html=1;whiteSpace=wrap;strokeColor=none;fillColor=none;align=center;verticalAlign=middle;rounded=0;" vertex="1" parent="1">
          <mxGeometry x="80" y="2538.5" width="60" height="30" as="geometry" />
        </mxCell>
        <mxCell id="TcDW0OOKa5HVjLUOx_Y9-132" value="ya" style="text;html=1;whiteSpace=wrap;strokeColor=none;fillColor=none;align=center;verticalAlign=middle;rounded=0;" vertex="1" parent="1">
          <mxGeometry x="60" y="1630" width="60" height="30" as="geometry" />
        </mxCell>
        <mxCell id="TcDW0OOKa5HVjLUOx_Y9-133" value="ya" style="text;html=1;whiteSpace=wrap;strokeColor=none;fillColor=none;align=center;verticalAlign=middle;rounded=0;" vertex="1" parent="1">
          <mxGeometry x="-80" y="1630" width="60" height="30" as="geometry" />
        </mxCell>
        <mxCell id="TcDW0OOKa5HVjLUOx_Y9-134" value="tidak" style="text;html=1;whiteSpace=wrap;strokeColor=none;fillColor=none;align=center;verticalAlign=middle;rounded=0;" vertex="1" parent="1">
          <mxGeometry x="-320" y="1550" width="60" height="30" as="geometry" />
        </mxCell>
        <mxCell id="TcDW0OOKa5HVjLUOx_Y9-136" value="END" style="ellipse;whiteSpace=wrap;html=1;" vertex="1" parent="1">
          <mxGeometry x="385" y="1020" width="70" height="60" as="geometry" />
        </mxCell>
        <mxCell id="TcDW0OOKa5HVjLUOx_Y9-137" value="tidak" style="text;html=1;whiteSpace=wrap;strokeColor=none;fillColor=none;align=center;verticalAlign=middle;rounded=0;" vertex="1" parent="1">
          <mxGeometry x="485" y="805" width="60" height="30" as="geometry" />
        </mxCell>
        <mxCell id="TcDW0OOKa5HVjLUOx_Y9-138" value="ya" style="text;html=1;whiteSpace=wrap;strokeColor=none;fillColor=none;align=center;verticalAlign=middle;rounded=0;" vertex="1" parent="1">
          <mxGeometry x="370" y="880" width="60" height="30" as="geometry" />
        </mxCell>
        <mxCell id="TcDW0OOKa5HVjLUOx_Y9-139" value="ya" style="text;html=1;whiteSpace=wrap;strokeColor=none;fillColor=none;align=center;verticalAlign=middle;rounded=0;" vertex="1" parent="1">
          <mxGeometry x="-790" y="550" width="60" height="30" as="geometry" />
        </mxCell>
        <mxCell id="TcDW0OOKa5HVjLUOx_Y9-140" value="tidak" style="text;html=1;whiteSpace=wrap;strokeColor=none;fillColor=none;align=center;verticalAlign=middle;rounded=0;" vertex="1" parent="1">
          <mxGeometry x="-880" y="450" width="60" height="30" as="geometry" />
        </mxCell>
      </root>
    </mxGraphModel>
  </diagram>
</mxfile>
